<svg width="393" height="393" viewBox="-13 0 393 393" fill="none" xmlns="http://www.w3.org/2000/svg">
<rect x="-13" y="0" width="393" height="393" rx="84" fill="#06070A"/>
<path fill-rule="evenodd" clip-rule="evenodd" d="M52.5312 1.39911C54.1548 -0.164942 56.6243 -0.449013 58.5607 0.705526C112.613 32.9338 156.797 80.4436 187.473 131.487C218.124 182.487 235.5 237.371 235.5 284.5C235.5 286.32 234.511 287.997 232.918 288.877C231.324 289.757 229.379 289.702 227.838 288.732C167.638 250.865 92.4184 264.378 59.745 301.313C58.0457 303.234 55.1686 303.558 53.0849 302.062C51.0012 300.567 50.3868 297.738 51.6626 295.513C116.05 183.228 78.5134 56.6068 51.6128 7.39845C50.5314 5.42031 50.9076 2.96316 52.5312 1.39911ZM68.3127 18.7255C92.6166 73.3198 117.184 178.383 71.989 277.764C111.095 252.04 172.886 246.797 225.289 275.631C223.278 232.724 206.924 183.265 178.902 136.638C151.835 91.6005 114.052 49.4966 68.3127 18.7255ZM152.361 51.1955C153.753 49.1405 156.442 48.4181 158.677 49.4988C190.448 64.8634 224.566 102.327 252.402 145.935C280.326 189.68 302.533 240.557 309.928 283.654C310.306 285.855 309.179 288.038 307.167 289.006C305.155 289.974 302.746 289.49 301.263 287.822C295.726 281.593 290.134 277.872 284.097 276.192C278.049 274.509 271.039 274.732 262.425 277.293C261.045 277.703 259.555 277.499 258.337 276.732C257.118 275.965 256.29 274.71 256.063 273.289C237.851 159.266 179.505 81.8036 153.127 57.6906C151.294 56.0158 150.968 53.2505 152.361 51.1955ZM187.955 82.4128C216.337 120.58 250.858 183.951 265.041 266.312C272.808 264.671 280.012 264.675 286.778 266.558C290.454 267.581 293.9 269.13 297.158 271.165C288.074 232.926 268.354 189.51 243.973 151.315C226.666 124.203 207.249 100.094 187.955 82.4128ZM344.033 300.89C344.917 302.788 344.524 305.036 343.049 306.522C333.297 316.348 317.162 331.677 300.369 345.807C286.293 357.651 271.329 369.024 259.157 375.414C263.574 380.129 267.505 383 273 383C280.376 383 285.436 377.804 292.042 370.217C292.198 370.037 292.356 369.856 292.514 369.673C295.453 366.294 298.744 362.51 302.475 359.593C306.532 356.42 311.431 354 317.5 354C332.763 354 340.442 363.009 346.109 370.478C346.596 371.121 347.062 371.742 347.512 372.341C349.782 375.366 351.632 377.832 353.764 379.764C356.083 381.865 358.404 383 361.5 383C364.261 383 366.5 385.239 366.5 388C366.5 390.762 364.261 393 361.5 393C355.346 393 350.73 390.51 347.049 387.174C344.137 384.535 341.606 381.149 339.354 378.136C338.94 377.583 338.537 377.043 338.142 376.522C332.808 369.491 327.737 364 317.5 364C314.32 364 311.531 365.205 308.635 367.47C305.679 369.781 302.958 372.908 299.793 376.543L299.36 377.04C293.368 383.925 285.468 393 273 393C260.84 393 253.482 384.352 247.784 377.655C247.586 377.423 247.39 377.192 247.196 376.965C240.715 369.368 235.735 364 227.5 364C219.287 364 214.295 369.114 208.013 376.293C207.746 376.597 207.476 376.908 207.202 377.222C201.58 383.681 194.338 392 182.5 392C170.158 392 162.249 383.017 156.408 376.273C156.115 375.936 155.828 375.603 155.544 375.275C152.762 372.054 150.389 369.306 147.878 367.223C145.214 365.013 142.905 364 140.5 364C138.003 364 135.513 365.028 132.569 367.225C130.022 369.127 127.563 371.561 124.709 374.384C124.156 374.931 123.589 375.493 123.003 376.068C116.177 382.77 107.235 391 94 391C80.4153 391 71.54 381.185 65.0489 373.469C64.3569 372.646 63.6927 371.847 63.0501 371.074C60.4487 367.945 58.1998 365.24 55.8765 363.098C53.0224 360.467 50.886 359.5 49 359.5C47.8665 359.5 46.5372 359.852 44.9159 360.747C42.4931 362.084 39.8745 364.374 36.928 367.419C35.14 369.267 33.4605 371.141 31.7068 373.098C30.4909 374.454 29.2393 375.851 27.8913 377.306C24.7869 380.657 21.3868 384.065 17.7364 386.612C14.0769 389.165 9.74349 391.151 4.84387 390.998C2.0838 390.911 -0.0837648 388.604 0.00248738 385.844C0.0887401 383.084 2.39615 380.916 5.15622 381.003C7.08083 381.063 9.29879 380.305 12.0147 378.411C14.7398 376.51 17.5393 373.765 20.5556 370.51C21.6511 369.327 22.821 368.024 24.0196 366.689C25.9157 364.577 27.8835 362.386 29.7412 360.466C31.7402 358.4 33.8818 356.351 36.1568 354.598L24.9688 330.614C24.2772 329.131 24.3547 327.404 25.1763 325.989C25.9979 324.574 27.4596 323.651 29.0901 323.517L339.09 298.017C341.177 297.845 343.15 298.992 344.033 300.89ZM45.0447 349.997C46.3107 349.68 47.6307 349.5 49 349.5C54.6141 349.5 59.1027 352.471 62.6548 355.746C65.5171 358.385 68.3109 361.751 70.9429 364.922C71.5376 365.639 72.1241 366.345 72.7012 367.031C79.4601 375.065 85.5848 381 94 381C102.765 381 109.073 375.73 115.997 368.932C116.505 368.434 117.02 367.923 117.543 367.405C120.381 364.592 123.428 361.57 126.587 359.212C130.425 356.347 134.997 354 140.5 354C146.095 354 150.599 356.487 154.263 359.527C157.458 362.178 160.397 365.587 163.061 368.677C163.366 369.032 163.669 369.382 163.967 369.727C170.251 376.983 175.342 382 182.5 382C189.585 382 193.975 377.15 200.487 369.708L200.511 369.68C206.476 362.863 214.231 354 227.5 354C239.237 354 246.674 361.143 252.369 367.643C263.546 362.25 278.751 350.928 293.931 338.155C305.652 328.292 317.067 317.818 326.132 309.117L37.0672 332.895L45.0447 349.997Z" fill="#E7E3D4"/>
</svg>
